<svg width="32" height="32" viewBox="0 0 32 32" fill="none" xmlns="http://www.w3.org/2000/svg">
  <defs>
    <linearGradient id="shield-gradient" x1="0%" y1="0%" x2="100%" y2="100%">
      <stop offset="0%" style="stop-color:#3B82F6;stop-opacity:1" />
      <stop offset="100%" style="stop-color:#EF4444;stop-opacity:1" />
    </linearGradient>
  </defs>
  <path d="M16 2L6 6v7c0 6.2 4.2 12 10 13.4 5.8-1.4 10-7.2 10-13.4V6l-10-4z" fill="url(#shield-gradient)"/>
  <path d="M16 4L8 7.5v5.5c0 5.2 3.5 10 8 11.2 4.5-1.2 8-6 8-11.2V7.5L16 4z" fill="white" opacity="0.9"/>
  <path d="M16 6L10 8.8v4.2c0 4.2 2.8 8 6 8.8 3.2-0.8 6-4.6 6-8.8V8.8L16 6z" fill="url(#shield-gradient)"/>
</svg> 